<svg width="46" height="12" viewBox="0 0 46 12" fill="none" xmlns="http://www.w3.org/2000/svg">
<path d="M2.41467 5.78701C1.95924 6.27851 1.73581 6.88129 1.73581 7.59536C1.73581 8.30015 1.95924 8.89366 2.41467 9.39443C2.8787 9.8952 3.42866 10.1363 4.09033 10.1363C4.33954 10.1363 4.58014 10.0992 4.81216 10.0158C4.89809 9.98794 4.99261 9.96939 5.07855 9.96939C5.25041 9.96939 5.42227 10.0343 5.58554 10.1549C5.81756 10.3403 5.93786 10.5907 5.93786 10.906C5.93786 11.3604 5.74022 11.6572 5.33634 11.7963C4.94106 11.9261 4.52859 12.0003 4.09893 12.0003C2.97323 12.0003 2.0022 11.5644 1.20304 10.702C0.403878 9.83956 0 8.79165 0 7.57681C0 6.36198 0.403878 5.31406 1.20304 4.45162C2.0022 3.58918 2.97323 3.15332 4.09893 3.15332C4.52859 3.15332 4.94106 3.21824 5.33634 3.35734C5.74022 3.49644 5.93786 3.7932 5.93786 4.2476V4.2847C5.93786 4.6 5.81756 4.84111 5.58554 5.02658C5.42227 5.14714 5.259 5.21205 5.08714 5.21205C5.00121 5.21205 4.90668 5.19351 4.81216 5.16568C4.58014 5.08222 4.33954 5.04513 4.09033 5.04513C3.43726 5.04513 2.8787 5.28624 2.41467 5.78701Z" fill="#161616"/>
<path d="M13.5854 6.86244V11.0634C13.5854 11.323 13.4995 11.5456 13.3277 11.7125C13.1644 11.898 12.9667 11.9907 12.7261 11.9907H12.7089C12.4683 11.9907 12.2707 11.898 12.0988 11.7125C11.927 11.5363 11.841 11.323 11.841 11.0634V6.86244C11.841 6.35239 11.6778 5.92581 11.3512 5.56414C11.0161 5.20247 10.6208 5.02627 10.1482 5.02627C9.67557 5.02627 9.27169 5.20247 8.93656 5.56414C8.61002 5.92581 8.44675 6.35239 8.44675 6.86244V11.0634C8.44675 11.323 8.36082 11.5456 8.18896 11.7125C8.01709 11.898 7.81945 11.9907 7.58744 11.9907H7.57025C7.33824 11.9907 7.14059 11.898 6.96873 11.7125C6.79687 11.5363 6.71094 11.323 6.71094 11.0634V0.927357C6.71094 0.667697 6.79687 0.454405 6.96873 0.268934C7.14059 0.0927358 7.33824 0 7.57025 0H7.58744C7.81945 0 8.01709 0.0927358 8.18896 0.268934C8.36082 0.454405 8.44675 0.67697 8.44675 0.927357V3.59814C8.82485 3.30139 9.3834 3.14374 10.1482 3.14374C11.0934 3.14374 11.9012 3.50541 12.5715 4.23802C13.2417 4.96136 13.5854 5.83307 13.5854 6.86244Z" fill="#161616"/>
<path d="M21.5612 4.44185C20.7621 3.57941 19.791 3.14355 18.6653 3.14355C17.5396 3.14355 16.5686 3.57941 15.7694 4.44185C14.9703 5.3043 14.5664 6.35221 14.5664 7.56705C14.5664 8.78188 14.9703 9.8298 15.7694 10.6922C16.5686 11.5547 17.5396 11.9905 18.6653 11.9905C19.6965 11.9905 20.4785 11.6845 21.0199 11.0632C21.0199 11.3228 21.1058 11.5454 21.2777 11.7123C21.4495 11.8978 21.6472 11.9905 21.8792 11.9905H21.8964C22.1284 11.9905 22.326 11.8978 22.4979 11.7123C22.6697 11.5361 22.7557 11.3228 22.7557 11.0632V7.56705C22.7643 6.35221 22.3604 5.3043 21.5612 4.44185ZM20.3324 9.37539C19.877 9.86689 19.3184 10.1173 18.6653 10.1173C18.0123 10.1173 17.4537 9.86689 16.9897 9.37539C16.5342 8.88389 16.3022 8.28111 16.3022 7.56705C16.3022 6.86226 16.5342 6.26875 16.9897 5.76797C17.4451 5.27648 18.0037 5.02609 18.6653 5.02609C19.3184 5.02609 19.8684 5.27648 20.3324 5.76797C20.7878 6.26875 21.0199 6.86226 21.0199 7.56705C21.0199 8.27184 20.7878 8.87462 20.3324 9.37539Z" fill="#161616"/>
<path d="M30.7468 4.44185C29.9476 3.57941 28.9766 3.14355 27.8509 3.14355C26.7252 3.14355 25.7542 3.57941 24.955 4.44185C24.1558 5.3043 23.752 6.35221 23.752 7.56705C23.752 8.78188 24.1558 9.8298 24.955 10.6922C25.7542 11.5547 26.7252 11.9905 27.8509 11.9905C28.8821 11.9905 29.664 11.6845 30.2054 11.0632C30.2054 11.3228 30.2913 11.5454 30.4632 11.7123C30.6351 11.8978 30.8327 11.9905 31.0647 11.9905H31.0819C31.3139 11.9905 31.5116 11.8978 31.6834 11.7123C31.8553 11.5361 31.9412 11.3228 31.9412 11.0632V7.56705C31.9412 6.35221 31.5459 5.3043 30.7468 4.44185ZM29.5094 9.37539C29.0539 9.86689 28.4954 10.1173 27.8423 10.1173C27.1892 10.1173 26.6307 9.86689 26.1752 9.37539C25.7198 8.88389 25.4878 8.28111 25.4878 7.56705C25.4878 6.86226 25.7112 6.26875 26.1752 5.76797C26.6307 5.27648 27.1892 5.02609 27.8423 5.02609C28.4954 5.02609 29.0453 5.27648 29.5094 5.76797C29.9734 6.26875 30.1968 6.86226 30.1968 7.56705C30.2054 8.27184 29.9734 8.87462 29.5094 9.37539Z" fill="#161616"/>
<path d="M39.9257 4.44204C39.1265 3.5796 38.1555 3.14374 37.0298 3.14374C35.9986 3.14374 35.208 3.4034 34.6753 3.91345V0.927357C34.6753 0.667697 34.5893 0.454405 34.4175 0.268934C34.2456 0.0927358 34.048 0 33.816 0H33.7988C33.5668 0 33.3605 0.0927358 33.1972 0.268934C33.0254 0.454405 32.9395 0.67697 32.9395 0.927357V7.59505C32.9395 8.80989 33.3519 9.84853 34.1511 10.7017C34.9502 11.5641 35.9127 11.9907 37.0384 11.9907C38.1641 11.9907 39.1351 11.5549 39.9343 10.6924C40.7334 9.82998 41.1373 8.78207 41.1373 7.56723C41.1287 6.35239 40.7248 5.30448 39.9257 4.44204ZM38.6969 9.38485C38.2328 9.88562 37.6829 10.1267 37.0298 10.1267C36.3767 10.1267 35.8182 9.87635 35.3541 9.38485C34.8987 8.88408 34.6667 8.29057 34.6667 7.58578C34.6667 6.88099 34.8987 6.27821 35.3541 5.77743C35.8182 5.27666 36.3681 5.03555 37.0298 5.03555C37.6829 5.03555 38.2328 5.28593 38.6969 5.77743C39.1523 6.26893 39.3843 6.87171 39.3843 7.58578C39.3843 8.29057 39.1523 8.89335 38.6969 9.38485Z" fill="#161616"/>
<path d="M44.5212 12.0007H43.2065C42.4417 12.0007 41.8831 11.231 42.0722 10.4334L42.7253 6.18613C42.8542 5.62044 43.3268 5.22168 43.8596 5.22168C44.4009 5.22168 44.865 5.62044 44.9939 6.18613L45.6469 10.4334C45.836 11.231 45.2774 12.0007 44.5212 12.0007Z" fill="#161616"/>
<path d="M43.8604 4.71101C45.0421 4.71101 46.0001 3.67718 46.0001 2.40189C46.0001 1.1266 45.0421 0.0927734 43.8604 0.0927734C42.6787 0.0927734 41.7207 1.1266 41.7207 2.40189C41.7207 3.67718 42.6787 4.71101 43.8604 4.71101Z" fill="#161616"/>
</svg>
