<svg xmlns="http://www.w3.org/2000/svg" width="118" height="117" viewBox="0 0 118 117" fill="none">
  <rect x="0.5" width="117" height="117" rx="20" fill="#DBE8FF"/>
  <path d="M92.3492 45.6638L60.4742 24.4138C60.0377 24.1226 59.5247 23.9672 59 23.9672C58.4753 23.9672 57.9623 24.1226 57.5258 24.4138L25.6508 45.6638C25.2869 45.9066 24.9886 46.2355 24.7824 46.6212C24.5762 47.007 24.4685 47.4377 24.4688 47.8751V82.4064C24.4688 83.8154 25.0285 85.1666 26.0247 86.1629C27.021 87.1592 28.3723 87.7189 29.7813 87.7189H88.2188C89.6277 87.7189 90.979 87.1592 91.9753 86.1629C92.9715 85.1666 93.5312 83.8154 93.5312 82.4064V47.8751C93.5315 47.4377 93.4238 47.007 93.2176 46.6212C93.0114 46.2355 92.7131 45.9066 92.3492 45.6638ZM48.6141 66.4689L29.7813 79.7501V53.0316L48.6141 66.4689ZM54.0494 69.1251H63.9506L82.7535 82.4064H35.2465L54.0494 69.1251ZM69.3859 66.4689L88.2188 53.0316V79.7501L69.3859 66.4689ZM59 29.816L86.1967 47.9482L63.9506 63.8126H54.0561L31.81 47.9482L59 29.816Z" fill="#003BA9"/>
</svg>