<svg xmlns="http://www.w3.org/2000/svg" width="35" height="35" viewBox="0 0 35 35" fill="none">
  <path d="M35 17.5C35 27.1649 27.1649 35 17.5 35C7.83611 35 0 27.1649 0 17.5C0 7.83611 7.83611 0 17.5 0C27.1649 0 35 7.83611 35 17.5Z" fill="#FEC84B"/>
  <path d="M11.1806 17.5004C12.5229 17.5004 13.6111 15.9769 13.6111 14.0976C13.6111 12.2183 12.5229 10.6948 11.1806 10.6948C9.8382 10.6948 8.75 12.2183 8.75 14.0976C8.75 15.9769 9.8382 17.5004 11.1806 17.5004Z" fill="#7A2E0E"/>
  <path d="M23.8212 17.5004C25.1635 17.5004 26.2517 15.9769 26.2517 14.0976C26.2517 12.2183 25.1635 10.6948 23.8212 10.6948C22.4788 10.6948 21.3906 12.2183 21.3906 14.0976C21.3906 15.9769 22.4788 17.5004 23.8212 17.5004Z" fill="#7A2E0E"/>
  <path d="M8.42639 27.0967C8.59944 27.2532 8.85805 27.263 9.04375 27.1249C9.08166 27.0967 12.8568 24.3055 17.5021 24.3055C22.1357 24.3055 25.9235 27.0967 25.9604 27.1249C26.1461 27.263 26.4047 27.2513 26.5778 27.0967C26.7499 26.9412 26.7887 26.6845 26.6692 26.4862C26.5437 26.2781 23.5415 21.3888 17.5021 21.3888C11.4626 21.3888 8.45944 26.2771 8.335 26.4862C8.21541 26.6855 8.25333 26.9412 8.42639 27.0967Z" fill="#7A2E0E"/>
</svg>