<svg xmlns="http://www.w3.org/2000/svg" width="25" height="25" viewBox="0 0 31 31" fill="none">
  <g clip-path="url(#clip0_484_1548)">
    <path d="M20.6944 12.4962H19.852V10.8115C19.852 8.48653 17.9651 6.59961 15.6401 6.59961C13.3152 6.59961 11.4282 8.48653 11.4282 10.8115V12.4962H10.5859C9.65926 12.4962 8.90112 13.2544 8.90112 14.181V22.6047C8.90112 23.5314 9.65926 24.2895 10.5859 24.2895H20.6944C21.621 24.2895 22.3791 23.5314 22.3791 22.6047V14.181C22.3791 13.2544 21.621 12.4962 20.6944 12.4962ZM13.113 10.8115C13.113 9.41314 14.2418 8.28436 15.6401 8.28436C17.0385 8.28436 18.1673 9.41314 18.1673 10.8115V12.4962H13.113V10.8115ZM19.852 22.6047H11.4282C10.9649 22.6047 10.5859 22.2257 10.5859 21.7624V15.0234C10.5859 14.5601 10.9649 14.181 11.4282 14.181H19.852C20.3153 14.181 20.6944 14.5601 20.6944 15.0234V21.7624C20.6944 22.2257 20.3153 22.6047 19.852 22.6047ZM15.6401 20.0776C16.5667 20.0776 17.3249 19.3195 17.3249 18.3929C17.3249 17.4663 16.5667 16.7081 15.6401 16.7081C14.7135 16.7081 13.9554 17.4663 13.9554 18.3929C13.9554 19.3195 14.7135 20.0776 15.6401 20.0776Z" fill="#F04438"/>
  </g>
  <defs>
    <clipPath id="clip0_484_1548">
      <rect width="29.4831" height="29.4831" fill="white" transform="translate(0.793213 0.703125)"/>
    </clipPath>
  </defs>
</svg>
