<svg width="312" height="197" viewBox="0 0 312 197" fill="none" xmlns="http://www.w3.org/2000/svg">
<g clip-path="url(#clip0_1574_12516)">
<path d="M158.04 93.7501H150.901C150.547 93.7501 150.281 93.4584 150.281 93.1375V78.2584C150.281 77.9083 150.576 77.6458 150.901 77.6458H158.04C158.394 77.6458 158.66 77.9375 158.66 78.2584V93.1375C158.66 93.4584 158.394 93.7501 158.04 93.7501Z" fill="white"/>
<path d="M158.04 93.7501H150.901C150.547 93.7501 150.281 93.4584 150.281 93.1375V78.2584C150.281 77.9083 150.576 77.6458 150.901 77.6458H158.04C158.394 77.6458 158.66 77.9375 158.66 78.2584V93.1375C158.66 93.4584 158.394 93.7501 158.04 93.7501Z" stroke="#5E5E5E" stroke-width="1.75048" stroke-miterlimit="10" stroke-linecap="round" stroke-linejoin="round"/>
<path d="M167.508 83.9483H141.724C138.951 83.9483 136.68 81.731 136.68 78.9594V75.9544C136.68 73.212 138.922 70.9656 141.724 70.9656H167.508C170.282 70.9656 172.553 73.1828 172.553 75.9544V78.9594C172.524 81.7018 170.282 83.9483 167.508 83.9483Z" fill="white"/>
<path d="M167.364 84.1225H141.58C138.807 84.1225 136.535 81.9052 136.535 79.1336V76.1286C136.535 73.3862 138.777 71.1398 141.58 71.1398H167.364C170.137 71.1398 172.409 73.357 172.409 76.1286V79.1336C172.379 81.876 170.137 84.1225 167.364 84.1225Z" stroke="#5E5E5E" stroke-width="1.75048" stroke-miterlimit="10" stroke-linecap="round" stroke-linejoin="round"/>
<path d="M183.083 94.2284L178.484 91.6027L173.764 99.6875L178.363 102.313L183.083 94.2284Z" fill="white"/>
<path d="M183.083 94.2284L178.484 91.6027L173.764 99.6875L178.363 102.313L183.083 94.2284Z" stroke="#5E5E5E" stroke-width="1.75048" stroke-miterlimit="10" stroke-linecap="round" stroke-linejoin="round"/>
<path d="M184.176 94.8592L177.39 90.979C175.974 90.1621 175.502 88.4116 176.328 87.0112L176.564 86.6028C177.39 85.2024 179.16 84.7356 180.577 85.5525L187.362 89.4327C188.778 90.2496 189.25 92.0001 188.424 93.4004L188.188 93.8089C187.391 95.1801 185.592 95.6761 184.176 94.8592Z" fill="#E08484"/>
<path d="M184.176 94.8592L177.39 90.979C175.974 90.1621 175.502 88.4116 176.328 87.0112L176.564 86.6028C177.39 85.2024 179.16 84.7356 180.577 85.5525L187.362 89.4327C188.778 90.2496 189.25 92.0001 188.424 93.4004L188.188 93.8089C187.391 95.1801 185.592 95.6761 184.176 94.8592Z" fill="#E08484"/>
<path d="M184.176 94.8592L177.39 90.979C175.974 90.1621 175.502 88.4116 176.328 87.0112L176.564 86.6028C177.39 85.2024 179.16 84.7356 180.577 85.5525L187.362 89.4327C188.778 90.2496 189.25 92.0001 188.424 93.4004L188.188 93.8089C187.391 95.1801 185.592 95.6761 184.176 94.8592Z" fill="white" stroke="#5E5E5E" stroke-width="1.75048" stroke-miterlimit="10" stroke-linecap="round" stroke-linejoin="round"/>
<path d="M131.003 102.34L135.602 99.714L130.881 91.6291L126.283 94.2548L131.003 102.34Z" fill="white"/>
<path d="M131.003 102.34L135.602 99.714L130.881 91.6291L126.283 94.2548L131.003 102.34Z" stroke="#5E5E5E" stroke-width="1.75048" stroke-miterlimit="10" stroke-linecap="round" stroke-linejoin="round"/>
<path d="M125.178 94.8592L131.963 90.979C133.379 90.1621 133.851 88.4116 133.025 87.0112L132.789 86.6028C131.963 85.2024 130.193 84.7356 128.777 85.5525L121.992 89.4327C120.576 90.2496 120.104 92.0001 120.93 93.4004L121.166 93.8089C121.962 95.1801 123.762 95.6761 125.178 94.8592Z" fill="#E08484"/>
<path d="M125.178 94.8592L131.963 90.979C133.379 90.1621 133.851 88.4116 133.025 87.0112L132.789 86.6028C131.963 85.2024 130.193 84.7356 128.777 85.5525L121.992 89.4327C120.576 90.2496 120.104 92.0001 120.93 93.4004L121.166 93.8089C121.962 95.1801 123.762 95.6761 125.178 94.8592Z" fill="white"/>
<path d="M125.178 94.8592L131.963 90.979C133.379 90.1621 133.851 88.4116 133.025 87.0112L132.789 86.6028C131.963 85.2024 130.193 84.7356 128.777 85.5525L121.992 89.4327C120.576 90.2496 120.104 92.0001 120.93 93.4004L121.166 93.8089C121.962 95.1801 123.762 95.6761 125.178 94.8592Z" stroke="#5E5E5E" stroke-width="1.75048" stroke-miterlimit="10" stroke-linecap="round" stroke-linejoin="round"/>
<path d="M167.691 71.2565V84.1225" stroke="#5E5E5E" stroke-width="1.75048" stroke-miterlimit="10" stroke-linecap="round" stroke-linejoin="round"/>
<path d="M162.379 71.2562V84.1222" stroke="#5E5E5E" stroke-width="1.75048" stroke-miterlimit="10" stroke-linecap="round" stroke-linejoin="round"/>
<path d="M157.066 71.2565V84.1225" stroke="#5E5E5E" stroke-width="1.75048" stroke-miterlimit="10" stroke-linecap="round" stroke-linejoin="round"/>
<path d="M151.758 71.2565V84.1225" stroke="#5E5E5E" stroke-width="1.75048" stroke-miterlimit="10" stroke-linecap="round" stroke-linejoin="round"/>
<path d="M146.449 71.2562V84.1222" stroke="#5E5E5E" stroke-width="1.75048" stroke-miterlimit="10" stroke-linecap="round" stroke-linejoin="round"/>
<path d="M141.141 71.2562V84.1222" stroke="#5E5E5E" stroke-width="1.75048" stroke-miterlimit="10" stroke-linecap="round" stroke-linejoin="round"/>
<path d="M154.471 188.101C181.632 188.101 203.65 166.327 203.65 139.467C203.65 112.607 181.632 90.8331 154.471 90.8331C127.311 90.8331 105.293 112.607 105.293 139.467C105.293 166.327 127.311 188.101 154.471 188.101Z" fill="white"/>
<path d="M154.472 177.92C175.947 177.92 193.355 160.705 193.355 139.468C193.355 118.232 175.947 101.016 154.472 101.016C132.998 101.016 115.59 118.232 115.59 139.468C115.59 160.705 132.998 177.92 154.472 177.92Z" fill="white"/>
<path d="M154.68 138.679V153.15" stroke="#5E5E5E" stroke-width="3.7927" stroke-miterlimit="10" stroke-linecap="round" stroke-linejoin="round"/>
<path d="M154.68 138.68V117.208" stroke="#5E5E5E" stroke-width="3.7927" stroke-miterlimit="10" stroke-linecap="round" stroke-linejoin="round"/>
<path d="M154.472 177.92C175.947 177.92 193.355 160.705 193.355 139.468C193.355 118.232 175.947 101.016 154.472 101.016C132.998 101.016 115.59 118.232 115.59 139.468C115.59 160.705 132.998 177.92 154.472 177.92Z" stroke="#5E5E5E" stroke-width="1.75048" stroke-miterlimit="10" stroke-linecap="round" stroke-linejoin="round"/>
<path d="M154.68 102.153V109.768" stroke="#5E5E5E" stroke-width="2.91746" stroke-miterlimit="10" stroke-linecap="round" stroke-linejoin="round"/>
<path d="M154.68 169.197V176.811" stroke="#5E5E5E" stroke-width="2.91746" stroke-miterlimit="10" stroke-linecap="round" stroke-linejoin="round"/>
<path d="M192.413 139.468H184.742" stroke="#5E5E5E" stroke-width="2.91746" stroke-miterlimit="10" stroke-linecap="round" stroke-linejoin="round"/>
<path d="M124.62 139.468H116.949" stroke="#5E5E5E" stroke-width="2.91746" stroke-miterlimit="10" stroke-linecap="round" stroke-linejoin="round"/>
<path d="M182.053 112.394L179.191 115.253" stroke="#5E5E5E" stroke-width="1.75048" stroke-miterlimit="10" stroke-linecap="round" stroke-linejoin="round"/>
<path d="M130.162 163.712L127.094 166.775" stroke="#5E5E5E" stroke-width="1.75048" stroke-miterlimit="10" stroke-linecap="round" stroke-linejoin="round"/>
<path d="M182.053 166.54L179.191 163.711" stroke="#5E5E5E" stroke-width="1.75048" stroke-miterlimit="10" stroke-linecap="round" stroke-linejoin="round"/>
<path d="M130.162 115.252L127.094 112.188" stroke="#5E5E5E" stroke-width="1.75048" stroke-miterlimit="10" stroke-linecap="round" stroke-linejoin="round"/>
<path d="M154.678 142.618C156.878 142.618 158.661 140.855 158.661 138.68C158.661 136.504 156.878 134.741 154.678 134.741C152.478 134.741 150.695 136.504 150.695 138.68C150.695 140.855 152.478 142.618 154.678 142.618Z" fill="white"/>
<path d="M154.678 142.618C156.878 142.618 158.661 140.855 158.661 138.68C158.661 136.504 156.878 134.741 154.678 134.741C152.478 134.741 150.695 136.504 150.695 138.68C150.695 140.855 152.478 142.618 154.678 142.618Z" stroke="#5E5E5E" stroke-width="2.62571" stroke-miterlimit="10" stroke-linecap="round" stroke-linejoin="round"/>
<path d="M154.677 155.864C156.192 155.864 157.421 154.65 157.421 153.151C157.421 151.653 156.192 150.438 154.677 150.438C153.162 150.438 151.934 151.653 151.934 153.151C151.934 154.65 153.162 155.864 154.677 155.864Z" fill="white"/>
<path d="M154.677 155.864C156.192 155.864 157.421 154.65 157.421 153.151C157.421 151.653 156.192 150.438 154.677 150.438C153.162 150.438 151.934 151.653 151.934 153.151C151.934 154.65 153.162 155.864 154.677 155.864Z" fill="white" stroke="#5E5E5E" stroke-width="1.75048" stroke-miterlimit="10" stroke-linecap="round" stroke-linejoin="round"/>
<path d="M154.471 188.101C181.632 188.101 203.65 166.327 203.65 139.467C203.65 112.607 181.632 90.8331 154.471 90.8331C127.311 90.8331 105.293 112.607 105.293 139.467C105.293 166.327 127.311 188.101 154.471 188.101Z" stroke="#5E5E5E" stroke-width="1.75048" stroke-miterlimit="10" stroke-linecap="round" stroke-linejoin="round"/>
<path d="M160.698 44.4448C153.234 45.1449 145.711 45.1449 138.248 44.4448C135.356 44.1822 133.026 42.4609 132.524 40.1853C131.226 34.2336 131.226 28.5446 132.524 22.593C133.026 20.3465 135.356 18.6252 138.248 18.3335C145.711 17.6333 153.234 17.6333 160.698 18.3335C163.589 18.5961 165.92 20.3174 166.421 22.593C167.719 28.5446 167.719 34.2336 166.421 40.1853C165.949 42.4609 163.589 44.1822 160.698 44.4448Z" fill="white"/>
<path d="M160.698 44.4448C153.234 45.1449 145.711 45.1449 138.248 44.4448C135.356 44.1822 133.026 42.4609 132.524 40.1853C131.226 34.2336 131.226 28.5446 132.524 22.593C133.026 20.3465 135.356 18.6252 138.248 18.3335C145.711 17.6333 153.234 17.6333 160.698 18.3335C163.589 18.5961 165.92 20.3174 166.421 22.593C167.719 28.5446 167.719 34.2336 166.421 40.1853C165.949 42.4609 163.589 44.1822 160.698 44.4448Z" stroke="#5E5E5E" stroke-width="1.75048" stroke-miterlimit="10" stroke-linecap="round" stroke-linejoin="round"/>
<path d="M148.069 25.7728L155.503 29.7405C156.89 30.4991 156.89 32.3371 155.503 33.0956L148.069 37.0634C146.682 37.8219 144.942 36.8883 144.942 35.4004V27.4649C144.912 25.9478 146.682 25.0143 148.069 25.7728Z" stroke="#5E5E5E" stroke-width="1.75048" stroke-miterlimit="10" stroke-linecap="round" stroke-linejoin="round"/>
<path d="M76.7682 106.208C76.7682 106.208 63.4631 108.221 61.2505 106.004C57.6219 102.386 63.7876 100.898 63.3451 97.4265C62.4011 90.162 62.8436 81.9931 65.7642 78.3463C65.7937 78.3171 65.8232 78.288 65.8527 78.2296C69.3634 73.9409 75.7946 73.1241 80.2788 76.4208C80.3083 76.45 80.3673 76.4791 80.3968 76.5083C84.1435 79.3382 86.6216 87.1279 87.5656 94.3923C88.0081 97.8641 94.3509 97.8058 91.7548 102.182C90.1617 104.866 76.7682 106.208 76.7682 106.208Z" fill="white"/>
<path d="M76.7682 106.208C76.7682 106.208 63.4631 108.221 61.2505 106.004C57.6219 102.386 63.7876 100.898 63.3451 97.4265C62.4011 90.162 62.8436 81.9931 65.7642 78.3463C65.7937 78.3171 65.8232 78.288 65.8527 78.2296C69.3634 73.9409 75.7946 73.1241 80.2788 76.4208C80.3083 76.45 80.3673 76.4791 80.3968 76.5083C84.1435 79.3382 86.6216 87.1279 87.5656 94.3923C88.0081 97.8641 94.3509 97.8058 91.7548 102.182C90.1617 104.866 76.7682 106.208 76.7682 106.208Z" stroke="#5E5E5E" stroke-width="1.75048" stroke-miterlimit="10" stroke-linecap="round" stroke-linejoin="round"/>
<path d="M83.1992 95.0929C83.4647 97.1059 84.3793 98.5938 85.4118 99.7025" stroke="#5E5E5E" stroke-width="1.16698" stroke-miterlimit="10" stroke-linecap="round" stroke-linejoin="round"/>
<path d="M78.0352 80.7094L78.0942 80.7677C79.5692 81.8763 81.4868 85.9316 82.6373 91.679" stroke="#5E5E5E" stroke-width="1.16698" stroke-miterlimit="10" stroke-linecap="round" stroke-linejoin="round"/>
<path d="M80.7505 105.712C81.016 107.842 79.4524 109.797 77.2693 110.059C75.0863 110.322 73.0802 108.834 72.7852 106.704L80.7505 105.712Z" fill="white"/>
<path d="M80.7505 105.712C81.016 107.842 79.4524 109.797 77.2693 110.059C75.0863 110.322 73.0802 108.834 72.7852 106.704L80.7505 105.712Z" stroke="#5E5E5E" stroke-width="1.75048" stroke-miterlimit="10" stroke-linecap="round" stroke-linejoin="round"/>
<path d="M92.4648 94.7428L94.6184 93.8967" stroke="white" stroke-width="0.583492" stroke-miterlimit="10" stroke-linecap="round" stroke-linejoin="round"/>
<path d="M90.457 93.4295L91.2241 90.9497" stroke="white" stroke-width="0.583492" stroke-miterlimit="10" stroke-linecap="round" stroke-linejoin="round"/>
<path d="M91.457 93.8959L93.6696 91.416" stroke="white" stroke-width="0.583492" stroke-miterlimit="10" stroke-linecap="round" stroke-linejoin="round"/>
<path d="M167.309 17.7533L169.846 16.7322" stroke="white" stroke-width="0.583492" stroke-miterlimit="10" stroke-linecap="round" stroke-linejoin="round"/>
<path d="M165.004 16.2059L165.859 13.3176" stroke="white" stroke-width="0.583492" stroke-miterlimit="10" stroke-linecap="round" stroke-linejoin="round"/>
<path d="M166.152 16.7314L168.719 13.8723" stroke="white" stroke-width="0.583492" stroke-miterlimit="10" stroke-linecap="round" stroke-linejoin="round"/>
<path d="M243.859 68.3679L246.367 67.376" stroke="white" stroke-width="0.583492" stroke-miterlimit="10" stroke-linecap="round" stroke-linejoin="round"/>
<path d="M241.527 66.8513L242.412 63.9338" stroke="white" stroke-width="0.583492" stroke-miterlimit="10" stroke-linecap="round" stroke-linejoin="round"/>
<path d="M242.711 67.3768L245.278 64.4885" stroke="white" stroke-width="0.583492" stroke-miterlimit="10" stroke-linecap="round" stroke-linejoin="round"/>
<path d="M59.3301 99.0607L58.7695 96.7559" stroke="white" stroke-width="0.583492" stroke-miterlimit="10" stroke-linecap="round" stroke-linejoin="round"/>
<path d="M57.648 100.899L54.6094 100.316" stroke="white" stroke-width="0.583492" stroke-miterlimit="10" stroke-linecap="round" stroke-linejoin="round"/>
<path d="M58.2673 99.9356L56.0547 97.3391" stroke="white" stroke-width="0.583492" stroke-miterlimit="10" stroke-linecap="round" stroke-linejoin="round"/>
<path d="M237.458 98.5646C229.758 98.9147 222.028 98.9147 214.299 98.5646C211.615 98.4479 209.461 96.2598 209.461 93.6049V76.5086C209.461 73.8246 211.585 71.6656 214.299 71.5489C221.999 71.1989 229.728 71.1989 237.458 71.5489C240.142 71.6656 242.296 73.8537 242.296 76.5086V93.6049C242.296 96.2598 240.142 98.4479 237.458 98.5646Z" fill="white"/>
<path d="M237.458 98.5646C229.758 98.9147 222.028 98.9147 214.299 98.5646C211.615 98.4479 209.461 96.2598 209.461 93.6049V76.5086C209.461 73.8246 211.585 71.6656 214.299 71.5489C221.999 71.1989 229.728 71.1989 237.458 71.5489C240.142 71.6656 242.296 73.8537 242.296 76.5086V93.6049C242.296 96.2598 240.142 98.4479 237.458 98.5646Z" stroke="#5E5E5E" stroke-width="1.75048" stroke-miterlimit="10" stroke-linecap="round" stroke-linejoin="round"/>
<path d="M213.949 90.3074L220.971 81.3508L229.29 87.2733L237.639 79.4253" stroke="#5E5E5E" stroke-width="1.75048" stroke-miterlimit="10" stroke-linecap="round" stroke-linejoin="round"/>
<path d="M213.948 92.2339C214.909 92.2339 215.688 91.4632 215.688 90.5126C215.688 89.5619 214.909 88.7913 213.948 88.7913C212.986 88.7913 212.207 89.5619 212.207 90.5126C212.207 91.4632 212.986 92.2339 213.948 92.2339Z" fill="white"/>
<path d="M213.948 92.2339C214.909 92.2339 215.688 91.4632 215.688 90.5126C215.688 89.5619 214.909 88.7913 213.948 88.7913C212.986 88.7913 212.207 89.5619 212.207 90.5126C212.207 91.4632 212.986 92.2339 213.948 92.2339Z" stroke="#5E5E5E" stroke-width="1.75048" stroke-miterlimit="10" stroke-linecap="round" stroke-linejoin="round"/>
<path d="M221.113 83.3347C222.205 83.3347 223.09 82.4595 223.09 81.38C223.09 80.3004 222.205 79.4253 221.113 79.4253C220.022 79.4253 219.137 80.3004 219.137 81.38C219.137 82.4595 220.022 83.3347 221.113 83.3347Z" fill="white"/>
<path d="M221.113 83.3347C222.205 83.3347 223.09 82.4595 223.09 81.38C223.09 80.3004 222.205 79.4253 221.113 79.4253C220.022 79.4253 219.137 80.3004 219.137 81.38C219.137 82.4595 220.022 83.3347 221.113 83.3347Z" stroke="#5E5E5E" stroke-width="1.75048" stroke-miterlimit="10" stroke-linecap="round" stroke-linejoin="round"/>
<path d="M229.259 88.7917C230.448 88.7917 231.413 87.8382 231.413 86.662C231.413 85.4857 230.448 84.5322 229.259 84.5322C228.07 84.5322 227.105 85.4857 227.105 86.662C227.105 87.8382 228.07 88.7917 229.259 88.7917Z" fill="white"/>
<path d="M229.259 88.7917C230.448 88.7917 231.413 87.8382 231.413 86.662C231.413 85.4857 230.448 84.5322 229.259 84.5322C228.07 84.5322 227.105 85.4857 227.105 86.662C227.105 87.8382 228.07 88.7917 229.259 88.7917Z" stroke="#5E5E5E" stroke-width="1.75048" stroke-miterlimit="10" stroke-linecap="round" stroke-linejoin="round"/>
<path d="M237.99 81.0894C239.179 81.0894 240.143 80.1359 240.143 78.9597C240.143 77.7835 239.179 76.83 237.99 76.83C236.8 76.83 235.836 77.7835 235.836 78.9597C235.836 80.1359 236.8 81.0894 237.99 81.0894Z" fill="white"/>
<path d="M237.99 81.0894C239.179 81.0894 240.143 80.1359 240.143 78.9597C240.143 77.7835 239.179 76.83 237.99 76.83C236.8 76.83 235.836 77.7835 235.836 78.9597C235.836 80.1359 236.8 81.0894 237.99 81.0894Z" stroke="#5E5E5E" stroke-width="1.75048" stroke-miterlimit="10" stroke-linecap="round" stroke-linejoin="round"/>
<path d="M241.468 105.975C246.861 105.975 251.233 101.651 251.233 96.3179C251.233 90.9846 246.861 86.6611 241.468 86.6611C236.075 86.6611 231.703 90.9846 231.703 96.3179C231.703 101.651 236.075 105.975 241.468 105.975Z" fill="white"/>
<path d="M241.468 105.975C246.861 105.975 251.233 101.651 251.233 96.3179C251.233 90.9846 246.861 86.6611 241.468 86.6611C236.075 86.6611 231.703 90.9846 231.703 96.3179C231.703 101.651 236.075 105.975 241.468 105.975Z" fill="white"/>
<path d="M241.468 105.975C246.861 105.975 251.233 101.651 251.233 96.3179C251.233 90.9846 246.861 86.6611 241.468 86.6611C236.075 86.6611 231.703 90.9846 231.703 96.3179C231.703 101.651 236.075 105.975 241.468 105.975Z" stroke="#5E5E5E" stroke-width="1.75048" stroke-miterlimit="10" stroke-linecap="round" stroke-linejoin="round"/>
<path d="M245.511 90.8331C247.222 92.0585 248.314 94.0423 248.314 96.2888C248.314 100.023 245.245 103.057 241.469 103.057C237.693 103.057 234.625 100.052 234.625 96.318C234.625 95.7345 234.714 95.151 234.861 94.5967" stroke="#5E5E5E" stroke-width="1.45873" stroke-miterlimit="10" stroke-linecap="round" stroke-linejoin="round"/>
<path d="M244.301 93.4594C244.566 93.7219 244.802 94.0137 244.979 94.3638C246.071 96.2893 245.363 98.7399 243.416 99.7902C242.442 100.315 241.321 100.432 240.348 100.14" stroke="#5E5E5E" stroke-width="1.45873" stroke-miterlimit="10" stroke-linecap="round" stroke-linejoin="round"/>
<path d="M97.0021 148.891C88.9483 140.634 82.9596 130.715 79.7734 119.774" stroke="white" stroke-width="0.875238" stroke-miterlimit="10" stroke-linecap="round" stroke-linejoin="round" stroke-dasharray="5.25 5.25"/>
<path d="M228.227 113.823C226.339 125.055 221.56 135.412 214.598 144.281" stroke="white" stroke-width="0.875238" stroke-miterlimit="10" stroke-linecap="round" stroke-linejoin="round" stroke-dasharray="5.25 5.25"/>
<path d="M179.191 32.8921C197.63 37.8226 213.265 48.6464 223.443 62.9419" stroke="white" stroke-width="0.875238" stroke-miterlimit="10" stroke-linecap="round" stroke-linejoin="round" stroke-dasharray="5.25 5.25"/>
<path d="M87.8281 68.3682C95.0854 54.3936 107.623 43.0738 123.141 36.5679" stroke="white" stroke-width="0.875238" stroke-miterlimit="10" stroke-linecap="round" stroke-linejoin="round" stroke-dasharray="5.25 5.25"/>
</g>
<defs>
<clipPath id="clip0_1574_12516">
<rect width="312" height="197" fill="white"/>
</clipPath>
</defs>
</svg>
