


<svg xmlns="http://www.w3.org/2000/svg" width="96" height="96" viewBox="0 0 96 96" fill="none">
  <path d="M96 48C96 74.5093 74.5093 96 48 96C21.4933 96 0 74.5093 0 48C0 21.4933 21.4933 0 48 0C74.5093 0 96 21.4933 96 48Z" fill="white"/>
  <path d="M30.6667 47.9997C34.3486 47.9997 37.3333 43.821 37.3333 38.6663C37.3333 33.5117 34.3486 29.333 30.6667 29.333C26.9848 29.333 24 33.5117 24 38.6663C24 43.821 26.9848 47.9997 30.6667 47.9997Z" fill="#8e24aa"/>
  <path d="M65.3332 47.9997C69.0151 47.9997 71.9998 43.821 71.9998 38.6663C71.9998 33.5117 69.0151 29.333 65.3332 29.333C61.6513 29.333 58.6665 33.5117 58.6665 38.6663C58.6665 43.821 61.6513 47.9997 65.3332 47.9997Z" fill="#8e24aa"/>
  <path d="M23.1065 74.323C23.5811 74.7523 24.2905 74.779 24.7998 74.4003C24.9038 74.323 35.2585 66.667 47.9998 66.667C60.7091 66.667 71.0985 74.323 71.1998 74.4003C71.7091 74.779 72.4185 74.747 72.8931 74.323C73.3651 73.8963 73.4718 73.1923 73.1438 72.6483C72.7998 72.0777 64.5651 58.667 47.9998 58.667C31.4345 58.667 23.1971 72.075 22.8558 72.6483C22.5278 73.195 22.6318 73.8963 23.1065 74.323Z" fill="#8e24aa"/>
</svg>