<svg xmlns="http://www.w3.org/2000/svg" width="25" height="25" viewBox="0 0 31 30" fill="none">
  <g clip-path="url(#clip0_484_1553)">
    <path d="M15.6401 16.5021C14.7135 16.5021 13.9554 17.2602 13.9554 18.1868C13.9554 19.1134 14.7135 19.8716 15.6401 19.8716C16.5667 19.8716 17.3249 19.1134 17.3249 18.1868C17.3249 17.2602 16.5667 16.5021 15.6401 16.5021ZM20.6944 12.2902H19.852V10.6054C19.852 8.28048 17.9651 6.39355 15.6401 6.39355C13.7195 6.39355 12.0432 7.69081 11.563 9.55246C11.4451 10.0073 11.7147 10.4622 12.1695 10.5802C12.616 10.6981 13.0793 10.4285 13.1972 9.97365C13.4836 8.86172 14.4861 8.07831 15.6401 8.07831C17.03 8.07831 18.1673 9.21551 18.1673 10.6054V12.2902H10.5859C9.65926 12.2902 8.90112 13.0483 8.90112 13.9749V22.3987C8.90112 23.3253 9.65926 24.0834 10.5859 24.0834H20.6944C21.621 24.0834 22.3791 23.3253 22.3791 22.3987V13.9749C22.3791 13.0483 21.621 12.2902 20.6944 12.2902ZM20.6944 21.5563C20.6944 22.0196 20.3153 22.3987 19.852 22.3987H11.4282C10.9649 22.3987 10.5859 22.0196 10.5859 21.5563V14.8173C10.5859 14.354 10.9649 13.9749 11.4282 13.9749H19.852C20.3153 13.9749 20.6944 14.354 20.6944 14.8173V21.5563Z" fill="#12B76A"/>
  </g>
  <defs>
    <clipPath id="clip0_484_1553">
      <rect width="29.4831" height="29.4831" fill="white" transform="translate(0.793213 0.49707)"/>
    </clipPath>
  </defs>
</svg>
